<svg width="32" height="32" viewBox="0 0 32 32" fill="none" xmlns="http://www.w3.org/2000/svg">
<path d="M27 4H5C2.79086 4 1 5.79086 1 8V24C1 26.2091 2.79086 28 5 28H27C29.2091 28 31 26.2091 31 24V8C31 5.79086 29.2091 4 27 4Z" fill="#071B65"/>
<path d="M5.10089 4H4.99989C3.01889 4 1.38489 5.444 1.06689 7.334L26.8989 28H26.9999C28.9809 28 30.6149 26.556 30.9329 24.666L5.10089 4Z" fill="white"/>
<path d="M22.25 19H19.75L29.684 26.947C30.071 26.594 30.388 26.17 30.613 25.69L22.25 19Z" fill="#B92932"/>
<path d="M1.38696 6.30898L9.74996 13H12.25L2.31596 5.05298C1.92896 5.40598 1.61196 5.82898 1.38696 6.30898Z" fill="#B92932"/>
<path d="M4.99989 28H5.10089L30.9329 7.334C30.6149 5.443 28.9809 4 26.9999 4H26.8989L1.06689 24.666C1.38489 26.557 3.01889 28 4.99989 28Z" fill="white"/>
<path d="M19 4H13V28H19V4Z" fill="white"/>
<path d="M31 13H1V19H31V13Z" fill="white"/>
<path d="M18 4H14V28H18V4Z" fill="#B92932"/>
<path d="M31 18V14L1 14V18H31Z" fill="#B92932"/>
<path d="M28.222 4.20996L19 11.586V13H19.75L29.693 5.05996C29.274 4.67596 28.775 4.38896 28.222 4.20996Z" fill="#B92932"/>
<path d="M2.32788 26.957C2.74188 27.331 3.23188 27.613 3.77488 27.789L12.9999 20.409V19.001H12.2499L2.32788 26.957Z" fill="#B92932"/>
<path opacity="0.15" d="M27 4H5C2.791 4 1 5.791 1 8V24C1 26.209 2.791 28 5 28H27C29.209 28 31 26.209 31 24V8C31 5.791 29.209 4 27 4ZM30 24C30 25.654 28.654 27 27 27H5C3.346 27 2 25.654 2 24V8C2 6.346 3.346 5 5 5H27C28.654 5 30 6.346 30 8V24Z" fill="black"/>
<path opacity="0.2" d="M27 5H5C3.343 5 2 6.343 2 8V9C2 7.343 3.343 6 5 6H27C28.657 6 30 7.343 30 9V8C30 6.343 28.657 5 27 5Z" fill="white"/>
</svg>
