<svg width="32" height="32" viewBox="0 0 32 32" fill="none" xmlns="http://www.w3.org/2000/svg">
<path d="M1 10H31V22H1V10Z" fill="#F1C142"/>
<path d="M5 4H27C29.208 4 31 5.792 31 8V11H1V8C1 5.792 2.792 4 5 4Z" fill="#A0251E"/>
<path d="M27 28L5 28C2.792 28 1 26.208 1 24V21L31 21V24C31 26.208 29.208 28 27 28Z" fill="#A0251E"/>
<path opacity="0.15" d="M27 4H5C2.791 4 1 5.791 1 8V24C1 26.209 2.791 28 5 28H27C29.209 28 31 26.209 31 24V8C31 5.791 29.209 4 27 4ZM30 24C30 25.654 28.654 27 27 27H5C3.346 27 2 25.654 2 24V8C2 6.346 3.346 5 5 5H27C28.654 5 30 6.346 30 8V24Z" fill="black"/>
<path opacity="0.2" d="M27 5H5C3.343 5 2 6.343 2 8V9C2 7.343 3.343 6 5 6H27C28.657 6 30 7.343 30 9V8C30 6.343 28.657 5 27 5Z" fill="white"/>
<path d="M12.6141 13.091C12.6801 13.06 12.6691 12.951 12.5981 12.934C12.6551 12.887 12.6181 12.784 12.5431 12.786C12.5831 12.729 12.5311 12.642 12.4611 12.656C12.4821 12.594 12.4191 12.529 12.3571 12.551C12.3671 12.483 12.2861 12.432 12.2301 12.47C12.2341 12.402 12.1491 12.358 12.0961 12.401C12.0861 12.33 11.9861 12.306 11.9461 12.366C11.9321 12.298 11.8351 12.279 11.7971 12.338C11.7701 12.283 11.6831 12.281 11.6531 12.334C11.6231 12.287 11.5461 12.289 11.5171 12.336C11.4991 12.308 11.4601 12.292 11.4271 12.302C11.4361 12.237 11.3611 12.187 11.3051 12.22C11.3071 12.15 11.2181 12.109 11.1671 12.156C11.1541 12.092 11.0641 12.069 11.0231 12.12C11.0031 12.057 10.9091 12.045 10.8751 12.103C10.8391 12.047 10.7461 12.061 10.7281 12.125C10.6871 12.07 10.5931 12.094 10.5821 12.161C10.5711 12.153 10.5591 12.147 10.5451 12.145C10.5511 12.137 10.5551 12.129 10.5601 12.12H10.5621C10.6201 12.013 10.5661 11.864 10.4561 11.822V11.724H10.5551V11.57H10.4561V11.469H10.3051V11.57H10.2061V11.724H10.3051V11.82C10.1921 11.86 10.1361 12.011 10.1951 12.119H10.1971C10.2011 12.127 10.2061 12.136 10.2111 12.143C10.1961 12.145 10.1821 12.151 10.1711 12.16C10.1601 12.093 10.0651 12.069 10.0251 12.124C10.0071 12.06 9.91409 12.046 9.87809 12.102C9.84409 12.045 9.75009 12.056 9.73009 12.119C9.68909 12.067 9.59909 12.091 9.58609 12.155C9.53509 12.108 9.44709 12.149 9.44809 12.219C9.39209 12.186 9.31709 12.236 9.32609 12.301C9.29209 12.291 9.25409 12.307 9.23509 12.335C9.20609 12.288 9.12909 12.286 9.09909 12.333C9.06909 12.279 8.98209 12.282 8.95609 12.337C8.91909 12.278 8.82109 12.297 8.80709 12.365C8.76809 12.305 8.66709 12.328 8.65709 12.4C8.60409 12.357 8.51909 12.4 8.52309 12.469C8.46709 12.431 8.38609 12.482 8.39609 12.55C8.33409 12.529 8.27109 12.594 8.29209 12.655C8.24209 12.646 8.19609 12.688 8.19609 12.739C8.19609 12.756 8.20109 12.772 8.21009 12.786C8.13509 12.784 8.09909 12.887 8.15509 12.934C8.08409 12.951 8.07309 13.059 8.13909 13.091C8.07809 13.126 8.09209 13.229 8.16109 13.245C8.14809 13.26 8.14009 13.279 8.14009 13.3C8.14009 13.342 8.17009 13.377 8.20909 13.384C8.18609 13.432 8.21809 13.494 8.26909 13.502C8.25609 13.532 8.25709 13.575 8.25709 13.608C8.34709 13.589 8.45709 13.614 8.49609 13.718C8.48109 13.786 8.56109 13.874 8.63409 13.864C8.69409 13.949 8.76709 14.029 8.88509 14.061C8.86409 14.154 8.94909 14.154 9.00809 14.179C8.99509 14.195 8.96509 14.242 8.95309 14.26C8.97709 14.273 9.04009 14.301 9.06609 14.311C9.07109 14.33 9.07009 14.339 9.07009 14.342C9.16109 14.843 11.6041 14.844 11.6861 14.341V14.339C11.6861 14.339 11.6901 14.342 11.6901 14.343C11.6901 14.34 11.6891 14.332 11.6941 14.312L11.8121 14.27L11.7501 14.18C11.8061 14.152 11.8951 14.155 11.8731 14.061C11.9921 14.029 12.0661 13.949 12.1261 13.863C12.1991 13.873 12.2791 13.785 12.2641 13.717C12.3031 13.613 12.4141 13.588 12.5031 13.607C12.5031 13.572 12.5051 13.529 12.4901 13.498C12.5341 13.484 12.5601 13.427 12.5391 13.383C12.6011 13.374 12.6301 13.29 12.5871 13.244C12.6561 13.228 12.6701 13.124 12.6091 13.09L12.6141 13.091ZM12.3181 12.977C12.3181 13.026 12.3061 13.075 12.2841 13.118C12.0861 12.981 11.8071 12.88 11.5901 12.904C11.5881 12.895 11.5841 12.887 11.5791 12.88C11.5791 12.88 11.5791 12.879 11.5791 12.878C11.6431 12.857 11.6531 12.758 11.5941 12.725C11.6421 12.693 11.6391 12.612 11.5891 12.584C11.9171 12.545 12.3181 12.674 12.3181 12.977ZM11.3621 12.702C11.3621 12.765 11.3421 12.826 11.3081 12.877C11.0341 12.818 10.8961 12.708 10.5911 12.692C10.5841 12.61 10.5861 12.521 10.5801 12.438C10.8261 12.248 11.3891 12.376 11.3621 12.702ZM10.1711 12.538C10.1691 12.588 10.1681 12.64 10.1641 12.689C9.86209 12.702 9.71509 12.811 9.44509 12.874C9.18509 12.468 9.86009 12.198 10.1751 12.438C10.1731 12.471 10.1701 12.504 10.1711 12.538ZM9.12509 12.655C9.12509 12.683 9.13909 12.708 9.15909 12.724C9.10109 12.757 9.11009 12.856 9.17409 12.876C9.17409 12.876 9.17409 12.877 9.17409 12.878C9.16909 12.885 9.16609 12.893 9.16309 12.902C8.94409 12.878 8.66809 12.969 8.46509 13.108C8.31009 12.731 8.78809 12.532 9.16309 12.583C9.14009 12.598 9.12409 12.624 9.12409 12.655H9.12509ZM9.07709 14.338V14.34C9.07709 14.34 9.07509 14.34 9.07409 14.342C9.07409 14.341 9.07609 14.338 9.07709 14.338Z" fill="#9B8028"/>
<path d="M14.1329 16.8559C14.4079 16.2059 14.3339 16.3479 13.8139 16.0689V15.1959C13.9629 15.0969 13.7199 15.0749 13.8639 14.9609H13.9359V14.6219H12.9459V14.9609H13.0209C13.1569 15.0629 12.9299 15.1069 13.0709 15.1959V15.9559C12.5469 15.9489 12.2999 16.0219 12.3919 16.5319H12.4309L12.4469 16.5679C12.5869 16.5049 12.8189 16.4609 13.0709 16.4489V16.6729C12.6869 16.7019 12.6509 17.2809 13.0709 17.4729V18.7639C13.0179 18.7809 13.0019 18.8529 13.0469 18.8869C13.0539 18.9519 12.9889 18.9789 12.9339 18.9699C12.9339 18.9959 12.9339 19.2069 12.9339 19.2389C12.8899 19.2629 12.8209 19.2689 12.7639 19.2669V19.3749V19.4819V19.5889V19.6969V19.8829C13.2229 19.8149 13.6589 19.8149 14.1169 19.8829V19.2669C14.0599 19.2689 13.9929 19.2629 13.9469 19.2389C13.9469 19.2059 13.9469 18.9979 13.9469 18.9709C13.8929 18.9789 13.8289 18.9539 13.8339 18.8899C13.8819 18.8569 13.8679 18.7819 13.8129 18.7639V17.8319C13.8509 17.8489 13.8859 17.8669 13.9179 17.8849C13.8129 18.0039 13.8259 18.2109 13.9489 18.3139L14.0059 18.2609C14.2279 17.9319 14.4019 17.5179 13.8129 17.3649V17.0149C13.9899 16.9959 14.1019 16.9409 14.1319 16.8569L14.1329 16.8559Z" fill="#9B8028"/>
<path d="M8.35989 16.058C8.20689 15.996 7.96989 15.96 7.70689 15.956V15.196C7.80089 15.155 7.74089 15.081 7.69389 15.037C7.71389 14.999 7.78589 14.98 7.74989 14.922H7.79289V14.661H6.88089V14.922H6.91989C6.88289 14.981 6.95889 15 6.97689 15.037C6.92989 15.079 6.86889 15.155 6.96289 15.196V16.069C6.31889 16.202 6.35189 16.817 6.96289 17.014V17.364C6.37289 17.518 6.54789 17.931 6.76989 18.26L6.82689 18.313C6.94989 18.21 6.96289 18.003 6.85789 17.884C6.88989 17.866 6.92489 17.848 6.96289 17.831V18.763C6.90789 18.781 6.89389 18.856 6.94189 18.889C6.94689 18.953 6.88289 18.978 6.82889 18.97C6.82889 18.996 6.82889 19.206 6.82889 19.238C6.78389 19.262 6.71589 19.269 6.65889 19.266V19.667V19.882C7.11789 19.814 7.55389 19.814 8.01089 19.882V19.696V19.588V19.481V19.374V19.266C7.95489 19.268 7.88689 19.262 7.84189 19.238C7.84189 19.205 7.84189 18.997 7.84189 18.969C7.78689 18.977 7.72289 18.951 7.72889 18.886C7.77389 18.852 7.75889 18.779 7.70489 18.762V17.472C8.12589 17.28 8.08789 16.7 7.70489 16.672V16.448C8.27989 16.483 8.50089 16.762 8.35789 16.056L8.35989 16.058Z" fill="#9B8028"/>
<path d="M12.531 14.533H8.25098L8.25398 17.105V18.59C8.25398 19.022 8.47998 19.412 8.84498 19.609C9.31798 19.861 9.86898 20 10.397 20C10.925 20 11.461 19.865 11.941 19.609C12.305 19.412 12.532 19.022 12.532 18.59L12.531 14.533Z" fill="#A0251E"/>
</svg>
