<svg width="32" height="32" viewBox="0 0 32 32" fill="none" xmlns="http://www.w3.org/2000/svg">
<path d="M1 11H31V21H1V11Z" fill="white"/>
<path d="M5 4H27C29.208 4 31 5.792 31 8V12H1V8C1 5.792 2.792 4 5 4Z" fill="#EA3323"/>
<path d="M27 28L5 28C2.792 28 1 26.208 1 24V20L31 20V24C31 26.208 29.208 28 27 28Z" fill="#100E91"/>
<path opacity="0.15" d="M27 4H5C2.791 4 1 5.791 1 8V24C1 26.209 2.791 28 5 28H27C29.209 28 31 26.209 31 24V8C31 5.791 29.209 4 27 4ZM30 24C30 25.654 28.654 27 27 27H5C3.346 27 2 25.654 2 24V8C2 6.346 3.346 5 5 5H27C28.654 5 30 6.346 30 8V24Z" fill="black"/>
<path d="M16.0011 22.0001C18.5251 22.0001 20.5911 19.9351 20.5911 17.4101V11.9561H11.4121V17.4101C11.4121 19.9341 13.4771 22.0001 16.0021 22.0001H16.0011Z" fill="#EA3323"/>
<path d="M16.001 21.9259C18.477 21.9259 20.503 19.8999 20.503 17.4239V12.0439H11.499V17.4239C11.499 19.8999 13.525 21.9259 16.001 21.9259Z" fill="white"/>
<path d="M13.399 12.214H11.666V14.118H13.399V12.214Z" fill="#EA3323"/>
<path d="M13.3989 16.0209H15.1319V14.1169H13.3989V16.0209Z" fill="#EA3323"/>
<path d="M11.667 17.414C11.667 17.587 11.678 17.757 11.698 17.925H13.4V16.021H11.667V17.414Z" fill="#EA3323"/>
<path d="M16.8651 16.021H15.1321V17.925H16.8651V16.021Z" fill="#EA3323"/>
<path d="M16.865 19.8279H18.598V17.924H16.865V19.8279Z" fill="#FF0000"/>
<path d="M18.5979 20.87C18.9819 20.58 19.3169 20.228 19.5869 19.829H18.5979V20.87Z" fill="#EA3323"/>
<path d="M13.3999 19.8279H15.1329V17.924H13.3999V19.8279Z" fill="#EA3323"/>
<path d="M12.4089 19.828C12.6799 20.228 13.0149 20.58 13.3999 20.871V19.828H12.4089Z" fill="#EA3323"/>
<path d="M16.3001 21.732C16.4921 21.719 16.6801 21.693 16.8651 21.655V19.828H15.1321V21.655C15.3161 21.693 15.5041 21.718 15.6951 21.732C15.8971 21.744 16.0991 21.744 16.3001 21.732Z" fill="#EA3323"/>
<path d="M20.2979 17.925C20.3179 17.757 20.3289 17.586 20.3289 17.412V16.021H18.5979V17.925H20.2979Z" fill="#EA3323"/>
<path d="M16.865 16.0209H18.598V14.1169H16.865V16.0209Z" fill="#EA3323"/>
<path d="M16.8651 12.214H15.1321V14.118H16.8651V12.214Z" fill="#EA3323"/>
<path d="M20.3289 14.117V12.213H18.5979V14.117H20.3289Z" fill="#EA3323"/>
<path d="M20.426 11.9L21.5 9.46499L20.682 8.14298L19.326 8.64499L18.374 7.55699L17.119 8.27599L16 7.35999L14.881 8.27599L13.626 7.55699L12.674 8.64499L11.318 8.14298L10.499 9.46499L11.572 11.901C12.924 11.289 14.423 10.948 15.999 10.948C17.575 10.948 19.073 11.289 20.425 11.9H20.426Z" fill="white"/>
<path d="M12.705 8.75296L12.703 8.75496L11.358 8.25696L10.605 9.47196L10.893 10.127L11.623 11.785C12.168 11.544 12.737 11.346 13.324 11.197L12.705 8.75296Z" fill="#0093DD"/>
<path d="M14.8931 8.38703L14.8911 8.38903L13.6471 7.67603L12.7051 8.75303L13.3251 11.197C13.9011 11.05 14.4941 10.95 15.1021 10.9L14.8941 8.38703H14.8931Z" fill="#100E91"/>
<path d="M17.1121 8.38806L17.1091 8.39006L16.0001 7.48206L14.8931 8.38906L15.1011 10.9021C15.3971 10.8781 15.6971 10.8641 16.0001 10.8641C16.3031 10.8641 16.6051 10.8771 16.9031 10.9021L17.1121 8.38906V8.38806Z" fill="#0093DD"/>
<path d="M19.3001 8.75402H19.2971L18.3531 7.67603L17.1121 8.38703L16.9031 10.9C17.5111 10.95 18.1041 11.051 18.6801 11.197L19.3011 8.75303L19.3001 8.75402Z" fill="#100E91"/>
<path d="M20.375 11.7851L21.395 9.47306L20.642 8.25806L19.3 8.75506L18.679 11.1991C19.264 11.3481 19.831 11.5461 20.374 11.7861L20.375 11.7851Z" fill="#0093DD"/>
<path opacity="0.2" d="M27 5H5C3.343 5 2 6.343 2 8V9C2 7.343 3.343 6 5 6H27C28.657 6 30 7.343 30 9V8C30 6.343 28.657 5 27 5Z" fill="white"/>
</svg>
